<svg id="Layer_4" data-name="Layer 4" xmlns="http://www.w3.org/2000/svg" viewBox="0 0 21 5">
  <defs>
    <style>
      .cls-1 {
        fill: #575454;
      }
    </style>
  </defs>
  <title>Enter</title>
  <g>
    <path class="cls-1" d="M2.74,2.74h-2V4.26h2.3V5H-.07V0H3.05V.69H.77V2.06h2Z"/>
    <path class="cls-1" d="M7.56,5H6.73L4.59,1.44V5H3.75V0h.84L6.73,3.52V0h.83Z"/>
    <path class="cls-1" d="M11.93.69h-1.5V5H9.6V.69H8.11V0h3.82Z"/>
    <path class="cls-1" d="M15.36,2.74h-2V4.26H15.7V5H12.56V0h3.11V.69H13.39V2.06h2Z"/>
    <path class="cls-1" d="M18.14,3.05h-.93V5h-.83V0h1.69a2,2,0,0,1,1.28.38A1.4,1.4,0,0,1,19.8,1.5a1.45,1.45,0,0,1-.23.83,1.52,1.52,0,0,1-.65.51L20,4.91V5h-.89Zm-.93-.7h.86a.92.92,0,0,0,.66-.22.75.75,0,0,0,.24-.6.84.84,0,0,0-.22-.61.94.94,0,0,0-.66-.23h-.88Z"/>
  </g>
</svg>
