<svg id="Layer_3" data-name="Layer 3" xmlns="http://www.w3.org/2000/svg" viewBox="0 0 21 5">
  <defs>
    <style>
      .cls-1 {
        fill: #575454;
      }
    </style>
  </defs>
  <title>Artboard 1</title>
  <g>
    <path class="cls-1" d="M.5.26H3.15v.6h-2V2.28H3.09v.6H1.17V4.34H3.22v.59H.5Z"/>
    <path class="cls-1" d="M7.65.26h.64V4.94H7.71L4.58,1.33V4.94H4V.26H4.5L7.65,3.9Z"/>
    <path class="cls-1" d="M8.89.25H12.8v.6H11.17V4.94H10.5V.85H8.89Z"/>
    <path class="cls-1" d="M13.44.26h2.65v.6h-2V2.28H16v.6H14.11V4.34h2.05v.59H13.44Z"/>
    <path class="cls-1" d="M16.89,4.94V.26h1.17a1.72,1.72,0,0,1,1.13.35,1.18,1.18,0,0,1,.42,1,1.19,1.19,0,0,1-.21.71,1.2,1.2,0,0,1-.58.45,2,2,0,0,1,.44.4,8.06,8.06,0,0,1,.6.89q.24.39.39.6l.25.33h-.8l-.2-.31,0,0-.13-.19-.21-.34-.22-.37a5.49,5.49,0,0,0-.38-.46A1.47,1.47,0,0,0,18.2,3a1,1,0,0,0-.46-.08h-.18v2ZM17.76.83h-.2V2.31h.26a1.76,1.76,0,0,0,.69-.09.7.7,0,0,0,.3-.26.77.77,0,0,0,.11-.4.7.7,0,0,0-.12-.4A.66.66,0,0,0,18.47.9,2.4,2.4,0,0,0,17.76.83Z"/>
  </g>
</svg>
