<?xml version="1.0" encoding="utf-8"?>
<!-- Generator: Adobe Illustrator 16.0.0, SVG Export Plug-In . SVG Version: 6.00 Build 0)  -->
<!DOCTYPE svg PUBLIC "-//W3C//DTD SVG 1.1//EN" "http://www.w3.org/Graphics/SVG/1.1/DTD/svg11.dtd">
<svg version="1.1" xmlns="http://www.w3.org/2000/svg" xmlns:xlink="http://www.w3.org/1999/xlink" x="0px" y="0px"
	 width="751.385px" height="174.83px" viewBox="0 0 751.385 174.83" enable-background="new 0 0 751.385 174.83"
	 xml:space="preserve">
<g id="Layer_1">
</g>
<g id="key">
	<text transform="matrix(1 0 0 1 560.7578 17.1587)" fill="#231F20" font-family="'HelveticaNeue'" font-size="13.3272">Fire Hydrant</text>
	<text transform="matrix(1 0 0 1 532.625 95.2183)" fill="#231F20" font-family="'HelveticaNeue'" font-size="13.3272">Evacuation Chair</text>
	<text transform="matrix(1 0 0 1 512.6348 137.103)" fill="#231F20" font-family="'HelveticaNeue'" font-size="13.3272">Fire Alarm Call Point</text>
	<text transform="matrix(1 0 0 1 309.4932 17.6328)" fill="#231F20" font-family="'HelveticaNeue'" font-size="13.3272">You Are Here</text>
	<text transform="matrix(1 0 0 1 316.6504 55.311)" fill="#231F20" font-family="'HelveticaNeue'" font-size="13.3272">Fire Blanket</text>
	<text transform="matrix(1 0 0 1 604.9502 168.4194)" fill="#231F20" font-family="'HelveticaNeue'" font-size="13.3272">Exits</text>
	<text transform="matrix(1 0 0 1 344.7969 95.6333)" fill="#231F20" font-family="'HelveticaNeue'" font-size="13.3272">Refuge</text>
	<text transform="matrix(1 0 0 1 284.3184 136.4722)" fill="#231F20" font-family="'HelveticaNeue'" font-size="13.3272">Exit From Refuge</text>
	<polygon fill="#5EBA47" stroke="#231F20" stroke-miterlimit="10" points="644.34,22.61 656.815,1.001 669.293,22.61 	"/>
	<rect x="646.662" y="81.285" fill="#ED2724" stroke="#231F20" stroke-miterlimit="10" width="20.309" height="20.309"/>
	
		<rect x="647.842" y="126.355" transform="matrix(0.7071 -0.7071 0.7071 0.7071 96.6846 504.0764)" fill="#2DB3E7" stroke="#231F20" stroke-miterlimit="10" width="17.95" height="17.95"/>
	<polygon fill="#F6921E" stroke="#231F20" stroke-miterlimit="10" points="413.552,46.588 422.767,41.748 421.008,52.006 
		428.465,59.277 418.161,60.772 413.552,70.111 408.94,60.772 398.638,59.277 406.095,52.006 404.336,41.748 	"/>
	<g>
		
			<line fill="#EC1C24" stroke="#EC1C24" stroke-width="5" stroke-miterlimit="10" x1="656.816" y1="166.89" x2="709.022" y2="166.89"/>
		<polygon fill="#EC1C24" stroke="#EC1C24" stroke-miterlimit="10" points="750.885,166.89 709.022,173.821 709.022,159.96 
			750.885,166.255 		"/>
	</g>
	<circle fill="#FFF100" stroke="#231F20" stroke-miterlimit="10" cx="656.816" cy="50.378" r="9.52"/>
	<text transform="matrix(1 0 0 1 653.252 55.188)" fill="#231F20" font-family="'GillSans'" font-size="14.2587">E</text>
	<text transform="matrix(1 0 0 1 490.6455 55.0806)" fill="#231F20" font-family="'HelveticaNeue'" font-size="13.3272">Smoke Detector (Mains)</text>
	<g>
		<rect x="398.046" y="76.939" fill="#51B748" width="31.01" height="31.011"/>
		<g id="layer1_5_" inkscape:label="Ebene 1" inkscape:groupmode="layer">
			
				<path id="path1631_5_" sodipodi:nodetypes="cccccccccccccccccccccccccccc" fill="#FFFFFF" stroke="#51B748" stroke-miterlimit="10" d="
				M417.224,94.137c-1.246-0.284-7.768-0.047-9.654-0.048c-0.059-4.1-0.073-8.199-0.107-12.299c-1.174-1.233-0.56-3.463,1.072-3.942
				c1.617-0.666,3.611,0.832,3.348,2.589c0.07,1.39-1.543,1.728-2.089,2.493c-0.038,1.622-0.074,3.25,0.023,4.869
				c2.198,0.177,4.425,0.047,6.636,0.077c0,0.713,0,1.425,0,2.138c-2.166,0-4.332,0-6.496,0c-0.533,1.234-0.004,2.252-0.121,2.139
				c2.443,0.012,6.448,0.005,8.893,0.007c1.401,2.882,2.75,5.803,4.166,8.668c1.486-0.181,2.565-1.02,3.131-1.057
				c0.618-0.053,0.635,1.921,0.566,1.862c-1.329,0.479-3.424,1.511-4.759,1.968C421.495,103.056,418.478,96.715,417.224,94.137z
				 M409.657,106.43c-2.915-0.324-4.953-1.196-6.51-2.594c-2.225-1.938-3.51-4.935-3.168-7.896c0.166-3.357,2.408-6.396,5.376-7.871
				c0.472,0.437,0.155,1.562,0.239,2.305c0.125,0.643-0.728,0.82-1.04,1.266c-2.205,2.111-2.687,5.715-1.294,8.406
				c1.474,3.059,5.203,4.978,8.53,4.042c2.495-0.628,4.471-2.51,5.784-4.653c0.55,0.44,1.72,2.305,0.535,3.127
				C416.106,105.077,412.899,106.654,409.657,106.43z"/>
		</g>
	</g>
	<g>
		<g>
			<rect x="398.046" y="117.201" fill="#51B748" width="31.01" height="31.011"/>
			<g id="layer1_4_" inkscape:label="Ebene 1" inkscape:groupmode="layer">
				
					<path id="path1631_4_" sodipodi:nodetypes="cccccccccccccccccccccccccccc" fill="#FFFFFF" stroke="#51B748" stroke-miterlimit="10" d="
					M417.224,134.399c-1.246-0.284-7.768-0.047-9.654-0.048c-0.059-4.1-0.073-8.199-0.107-12.299
					c-1.174-1.233-0.56-3.463,1.072-3.942c1.617-0.666,3.611,0.832,3.348,2.589c0.07,1.39-1.543,1.728-2.089,2.493
					c-0.038,1.622-0.074,3.25,0.023,4.869c2.198,0.177,4.425,0.047,6.636,0.077c0,0.713,0,1.425,0,2.138c-2.166,0-4.332,0-6.496,0
					c-0.533,1.234-0.004,2.252-0.121,2.139c2.443,0.012,6.448,0.005,8.893,0.007c1.401,2.882,2.75,5.803,4.166,8.668
					c1.486-0.181,2.565-1.02,3.131-1.057c0.618-0.053,0.635,1.921,0.566,1.862c-1.329,0.479-3.424,1.511-4.759,1.968
					C421.495,143.318,418.478,136.977,417.224,134.399z M409.657,146.692c-2.915-0.324-4.953-1.196-6.51-2.594
					c-2.225-1.938-3.51-4.935-3.168-7.896c0.166-3.357,2.408-6.396,5.376-7.871c0.472,0.437,0.155,1.562,0.239,2.305
					c0.125,0.643-0.728,0.82-1.04,1.266c-2.205,2.111-2.687,5.715-1.294,8.406c1.474,3.059,5.203,4.978,8.53,4.042
					c2.495-0.628,4.471-2.51,5.784-4.653c0.55,0.44,1.72,2.305,0.535,3.127C416.106,145.338,412.899,146.916,409.657,146.692z"/>
			</g>
		</g>
		<rect x="407.593" y="148.211" fill="#EC1E24" width="11.916" height="7.782"/>
		<polygon fill="#EC1E24" points="413.271,164.33 413.271,164.33 398.046,155.994 429.056,155.994 		"/>
	</g>
	<g>
		<circle fill="#EC1E24" cx="413.551" cy="14.459" r="14.458"/>
		<circle fill="#00ADEE" cx="413.551" cy="14.459" r="9.841"/>
		<circle fill="#F9EC31" cx="413.551" cy="14.458" r="5.843"/>
	</g>
</g>
<g id="title">
	<text transform="matrix(1 0 0 1 0 55.5688)" fill="#231F20" font-family="'HelveticaNeue-Bold'" font-size="22.8466">Second Floor</text>
	<text transform="matrix(1 0 0 1 0 96.0298)" fill="#231F20" font-family="'HelveticaNeue-Bold'" font-size="13.3272">In Case Of Fire Do Not Use Lift</text>
	<text transform="matrix(1 0 0 1 0 136.4556)" fill="#231F20" font-family="'HelveticaNeue-Bold'" font-size="13.3272">Emergency Phone 999</text>
</g>
</svg>
